<?xml version="1.0" encoding="utf-8"?>
<!-- Generator: Adobe Illustrator 16.0.3, SVG Export Plug-In . SVG Version: 6.00 Build 0)  -->
<!DOCTYPE svg PUBLIC "-//W3C//DTD SVG 1.1//EN" "http://www.w3.org/Graphics/SVG/1.1/DTD/svg11.dtd">
<svg version="1.1" id="Ebene_1" xmlns="http://www.w3.org/2000/svg" xmlns:xlink="http://www.w3.org/1999/xlink" x="0px" y="0px"
	 width="1024px" height="1024px" viewBox="0 0 1024 1024" enable-background="new 0 0 1024 1024" xml:space="preserve">
<path fill="#0971B8" d="M978.529,326.506c-0.01-0.005-0.019-0.646-0.029-0.653L557.331,25.929
	c-24.93-17.739-65.733-17.898-90.665-0.16L45.5,325.299c-0.011,0.007-0.022,1.24-0.033,1.245L0.165,360H55.8h912.4h55.633
	L978.529,326.506z"/>
<rect y="360" fill="#0971B8" width="1023" height="652"/>
<g>
	<path fill="#F2F2F2" d="M891,890c0,11-9,20-20,20H153c-11,0-20-9-20-20V167c0-11,9-20,20-20h718c11,0,20,9,20,20V890z"/>
</g>
<polygon fill="#2CABE2" points="0,357.471 482.625,716.311 0,1008.388 "/>
<polygon fill="#2CABE2" points="1023,357.471 540.372,716.311 1023,1008.388 "/>
<path fill="#0971B8" d="M978.529,977.967c-0.01-0.006-0.019-0.917-0.029-0.925l-421.169-300.06
	c-24.93-17.737-65.733-17.965-90.665-0.227L45.5,976.252c-0.011,0.007-0.022,1.767-0.033,1.771L0.165,1012H55.8h912.4h55.633
	L978.529,977.967z"/>
<circle fill="#F39323" cx="512" cy="392.703" r="191.003"/>
<g>
	<path fill="#FFFFFF" d="M512.083,519.445c-8.068,0-14.995-2.875-20.782-8.616c-5.787-5.742-8.639-12.65-8.55-20.715
		c-0.089-7.983,2.763-14.83,8.55-20.534c5.787-5.703,12.713-8.556,20.782-8.556c7.736,0,14.543,2.853,20.405,8.556
		c5.869,5.704,8.84,12.551,8.927,20.534c-0.087,5.377-1.49,10.287-4.217,14.728c-2.732,4.439-6.296,7.985-10.697,10.629
		C522.101,518.119,517.293,519.445,512.083,519.445z M539.214,265.962l-4.771,175.263h-44.729l-4.889-175.263H539.214z"/>
</g>
</svg>
